<?xml version="1.0" encoding="UTF-8"?>
<svg width="30px" height="40px" viewBox="0 0 30 40" version="1.1" xmlns="http://www.w3.org/2000/svg" xmlns:xlink="http://www.w3.org/1999/xlink">
    <!-- Generator: Sketch 46.2 (44496) - http://www.bohemiancoding.com/sketch -->
    <title>fire</title>
    <desc>Created with Sketch.</desc>
    <defs></defs>
    <g id="Page-1" stroke="none" stroke-width="1" fill="none" fill-rule="evenodd">
        <g id="Главная-design" transform="translate(-42.000000, -2107.000000)" fill-rule="nonzero" fill="#730000">
            <g id="fire" transform="translate(42.000000, 2107.000000)">
                <path d="M29.9145312,23.4194383 C29.4563281,17.4538939 26.6788281,13.7155361 24.2285156,10.4166313 C21.9596094,7.36257007 20,4.72522743 20,0.834760321 C20,0.522260453 19.825,0.236635573 19.5475,0.0934325087 C19.2691406,-0.0506299305 18.9346875,-0.0270361905 18.6816406,0.156869982 C15.0016406,2.79015012 11.9311719,7.22835137 10.8585938,11.4630371 C10.1139844,14.411239 10.0154688,17.7256126 10.0016406,19.914596 C6.60320313,19.1887369 5.83335938,14.1053016 5.82523438,14.049911 C5.78695313,13.7862392 5.62585938,13.5567862 5.39148438,13.4314738 C5.1546875,13.3078019 4.87632813,13.2988176 4.63625,13.4176456 C4.45804688,13.5038956 0.26203125,15.6359259 0.017890625,24.1485005 C0.00078125,24.4317035 0,24.7157659 0,24.9997501 C0,33.2698248 6.72929687,39.9987282 15,39.9987282 C15.0114063,39.9995094 15.0235937,40.00115 15.0333594,39.9987282 C15.0366406,39.9987282 15.0398438,39.9987282 15.0439063,39.9987282 C23.2942969,39.9750563 30,33.2552154 30,24.9997501 C30,24.5838909 29.9145312,23.4194383 29.9145312,23.4194383 Z M15,38.3321664 C12.2428125,38.3321664 10,35.9430268 10,33.0062311 C10,32.906153 9.99921875,32.8052156 10.0064844,32.6815438 C10.0398438,31.4430287 10.2750781,30.5975603 10.5330469,30.0352167 C11.0164844,31.0735757 11.8807031,32.0281065 13.2845313,32.0281065 C13.7451563,32.0281065 14.1178906,31.6553723 14.1178906,31.1948256 C14.1178906,30.0084199 14.1423438,28.6396705 14.4377344,27.4043585 C14.700625,26.3090464 15.3288281,25.1437344 16.1247656,24.2095942 C16.47875,25.4220937 17.1689063,26.4034214 17.8427344,27.3612335 C18.8071094,28.7315454 19.8039844,30.1483417 19.9789844,32.5643563 C19.9895312,32.7075594 20.0001562,32.8516218 20.0001562,33.0062311 C20,35.9429486 17.7571875,38.3321664 15,38.3321664 Z" id="Shape"></path>
            </g>
        </g>
    </g>
</svg>