<?xml version="1.0" encoding="UTF-8"?>
<svg width="24px" height="33px" viewBox="0 0 24 33" version="1.1" xmlns="http://www.w3.org/2000/svg" xmlns:xlink="http://www.w3.org/1999/xlink">
    <!-- Generator: Sketch 46.2 (44496) - http://www.bohemiancoding.com/sketch -->
    <title>delete-photo</title>
    <desc>Created with Sketch.</desc>
    <defs></defs>
    <g id="Page-1" stroke="none" stroke-width="1" fill="none" fill-rule="evenodd">
        <g id="Личный-кабинет-пользователя-design" transform="translate(-1795.000000, -694.000000)" fill-rule="nonzero" fill="#CBCBCB">
            <g id="delete-photo" transform="translate(1795.000000, 694.000000)">
                <path d="M2,32.2814511 C2,32.6783057 2.32698523,33 2.73036683,33 L21.2696332,33 C21.6730148,33 22,32.6783057 22,32.2814511 L22,9 L2,9 L2,32.2814511 L2,32.2814511 Z M16.1083134,12.9620427 L18.847189,12.9620427 L18.847189,28.6274504 L16.1083134,28.6274504 L16.1083134,12.9620427 Z M10.6305622,12.9620427 L13.3694378,12.9620427 L13.3694378,28.6274504 L10.6305622,28.6274504 L10.6305622,12.9620427 Z M5.152811,12.9620427 L7.8916866,12.9620427 L7.8916866,28.6274504 L5.152811,28.6274504 L5.152811,12.9620427 Z" id="Shape"></path>
                <path d="M18.1603162,3.54377865 L18.1603162,0.771132649 C18.1603162,0.345236087 17.833106,0 17.4294467,0 L6.57055327,0 C6.16689405,0 5.83968378,0.345236087 5.83968378,0.771132649 L5.83968378,3.54377865 L5.83968378,4.02573655 L5.83968378,4.50769446 L0.730869491,4.50769446 C0.327210271,4.50769446 0,4.85293055 0,5.27882711 L0,7.22886735 C0,7.65472536 0.327210271,8 0.730869491,8 L1.99311765,8 L22.0068824,8 L23.2691305,8 C23.6727897,8 24,7.65472536 24,7.22886735 L24,5.27882711 C24,4.85293055 23.6727897,4.50769446 23.2691305,4.50769446 L18.1603162,4.50769446 L18.1603162,4.02573655 L18.1603162,3.54377865 Z M15.4195556,4.34914959 L8.58044437,4.34914959 L8.58044437,4.025698 L8.58044437,3.54374009 L8.58044437,2.89174743 L15.4195556,2.89174743 L15.4195556,3.54377865 L15.4195556,4.02573655 L15.4195556,4.34914959 Z" id="Shape"></path>
            </g>
        </g>
    </g>
</svg>