<?xml version="1.0" encoding="UTF-8"?>
<svg width="34px" height="34px" viewBox="0 0 34 34" version="1.1" xmlns="http://www.w3.org/2000/svg" xmlns:xlink="http://www.w3.org/1999/xlink">
    <!-- Generator: Sketch 46.2 (44496) - http://www.bohemiancoding.com/sketch -->
    <title>Group</title>
    <desc>Created with Sketch.</desc>
    <defs></defs>
    <g id="Page-1" stroke="none" stroke-width="1" fill="none" fill-rule="evenodd">
        <g id="Личный-кабинет-Администратора-Пользователи-design" transform="translate(-1753.000000, -461.000000)">
            <g id="Group" transform="translate(1753.000000, 461.000000)">
                <circle id="Oval-6" fill="#D8D8D8" cx="17" cy="17" r="17"></circle>
                <rect id="Rectangle-3" fill="#FFFFFF" x="9" y="14" width="16" height="12" rx="3"></rect>
                <path d="M16.7458114,7.01899929 L12.5304248,12.5874502 C12.757205,14.3013366 14.2241506,15.6239106 16,15.6239106 L17.6049113,15.6239106 C19.537908,15.6239106 21.1049113,14.0569073 21.1049113,12.1239106 L21.1049113,10.5189993 C21.1049113,8.58600267 19.537908,7.01899929 17.6049113,7.01899929 L16.7458114,7.01899929 Z" id="Rectangle-4" stroke="#FFFFFF" stroke-width="3" transform="translate(16.802456, 11.321455) rotate(-90.000000) translate(-16.802456, -11.321455) "></path>
                <path d="M14.8459232,20.3746146 C14.3271633,19.9165339 14,19.2464735 14,18.5 C14,17.1192881 15.1192881,16 16.5,16 C17.8807119,16 19,17.1192881 19,18.5 C19,19.2464735 18.6728367,19.9165339 18.1540768,20.3746146 L19,24 L14,24 L14.8459232,20.3746146 Z" id="Combined-Shape" fill="#D8D8D8"></path>
            </g>
        </g>
    </g>
</svg>