<?xml version="1.0" encoding="UTF-8"?>
<svg width="131px" height="124px" viewBox="0 0 131 124" version="1.1" xmlns="http://www.w3.org/2000/svg" xmlns:xlink="http://www.w3.org/1999/xlink">
    <!-- Generator: Sketch 46.2 (44496) - http://www.bohemiancoding.com/sketch -->
    <title>logo-white</title>
    <desc>Created with Sketch.</desc>
    <defs></defs>
    <g id="Page-1" stroke="none" stroke-width="1" fill="none" fill-rule="evenodd">
        <g id="Главная-design" transform="translate(-1757.000000, -4395.000000)">
            <g id="logo-white" transform="translate(1757.000000, 4395.000000)">
                <rect id="Rectangle-2" stroke="#FFFFFF" x="0.5" y="0.5" width="130" height="123" rx="4"></rect>
                <path d="M6,5.3792876 L12.4287356,5.3792876 L20.8180077,17.6833773 L20.8180077,5.3792876 L27.3075351,5.3792876 L27.3075351,27.6207124 L20.8180077,27.6207124 L12.4743295,15.4076517 L12.4743295,27.6207124 L6,27.6207124 L6,5.3792876 Z M31.0158365,16.5151715 C31.0158365,12.8841067 32.0290235,10.0571781 34.0554278,8.03430079 C36.0818322,6.01142348 38.9035579,5 42.5206897,5 C46.2290096,5 49.0861969,5.99372357 51.0923372,7.98120053 C53.0984775,9.96867748 54.1015326,12.7526206 54.1015326,16.3331135 C54.1015326,18.9325108 53.6633292,21.0640858 52.7869093,22.7279024 C51.9104894,24.391719 50.6440057,25.686341 48.9874202,26.6118074 C47.3308346,27.5372738 45.2664662,28 42.7942529,28 C40.2815115,28 38.2019452,27.6004877 36.5554917,26.8014512 C34.9090382,26.0024147 33.5741643,24.7381353 32.5508301,23.0085752 C31.5274959,21.2790151 31.0158365,19.1145688 31.0158365,16.5151715 Z M37.9005109,16.5455145 C37.9005109,18.7909083 38.3184505,20.4041288 39.1543423,21.3852243 C39.9902341,22.3663198 41.1275364,22.8568602 42.5662835,22.8568602 C44.0455587,22.8568602 45.19046,22.376434 46.0010217,21.4155673 C46.8115834,20.4547006 47.2168582,18.7302235 47.2168582,16.2420844 C47.2168582,14.1484064 46.7938527,12.6186284 45.9478289,11.6527045 C45.1018051,10.6867806 43.9543708,10.2038259 42.5054917,10.2038259 C41.1174047,10.2038259 40.0028991,10.6943662 39.1619413,11.6754617 C38.3209834,12.6565572 37.9005109,14.2798919 37.9005109,16.5455145 Z M57.9010217,27.6207124 L57.9010217,5.3792876 L69.3754789,5.3792876 C71.5032035,5.3792876 73.1293686,5.56134383 74.254023,5.92546174 C75.3786774,6.28957966 76.2854797,6.96470483 76.9744572,7.95085752 C77.6634347,8.93701021 78.0079183,10.1380756 78.0079183,11.5540897 C78.0079183,12.7880449 77.7444897,13.8525681 77.2176245,14.7476913 C76.6907594,15.6428145 75.9663307,16.3685109 75.0443167,16.9248021 C74.4566595,17.2788056 73.6511758,17.5721184 72.6278416,17.8047493 C73.4485354,18.0778378 74.0463157,18.3509221 74.4212005,18.6240106 C74.6745011,18.8060695 75.0417813,19.1954676 75.5230524,19.7922164 C76.0043234,20.3889652 76.3260103,20.8491628 76.4881226,21.1728232 L79.8164751,27.6207124 L72.0351213,27.6207124 L68.3572158,20.8238786 C67.8911428,19.943927 67.4757362,19.3724727 67.1109834,19.1094987 C66.6145143,18.7656095 66.0521956,18.5936675 65.4240102,18.5936675 L64.816092,18.5936675 L64.816092,27.6207124 L57.9010217,27.6207124 Z M64.816092,14.3911609 L67.7189017,14.3911609 C68.0329943,14.3911609 68.6409065,14.2900186 69.5426564,14.0877309 C69.9985974,13.9967014 70.3709436,13.764074 70.6597063,13.3898417 C70.9484689,13.0156094 71.092848,12.5857544 71.092848,12.1002639 C71.092848,11.3821424 70.864881,10.8309166 70.40894,10.4465699 C69.952999,10.0622232 69.096856,9.87005277 67.8404853,9.87005277 L64.816092,9.87005277 L64.816092,14.3911609 Z M81.1538953,16.5151715 C81.1538953,12.8841067 82.1670822,10.0571781 84.1934866,8.03430079 C86.2198909,6.01142348 89.0416167,5 92.6587484,5 C96.3670683,5 99.2242556,5.99372357 101.230396,7.98120053 C103.236536,9.96867748 104.239591,12.7526206 104.239591,16.3331135 C104.239591,18.9325108 103.801388,21.0640858 102.924968,22.7279024 C102.048548,24.391719 100.782064,25.686341 99.1254789,26.6118074 C97.4688934,27.5372738 95.4045249,28 92.9323116,28 C90.4195702,28 88.340004,27.6004877 86.6935504,26.8014512 C85.0470969,26.0024147 83.7122231,24.7381353 82.6888889,23.0085752 C81.6655547,21.2790151 81.1538953,19.1145688 81.1538953,16.5151715 Z M88.0385696,16.5455145 C88.0385696,18.7909083 88.4565092,20.4041288 89.292401,21.3852243 C90.1282928,22.3663198 91.2655952,22.8568602 92.7043423,22.8568602 C94.1836174,22.8568602 95.3285187,22.376434 96.1390805,21.4155673 C96.9496422,20.4547006 97.354917,18.7302235 97.354917,16.2420844 C97.354917,14.1484064 96.9319114,12.6186284 96.0858876,11.6527045 C95.2398638,10.6867806 94.0924296,10.2038259 92.6435504,10.2038259 C91.2554635,10.2038259 90.1409578,10.6943662 89.3,11.6754617 C88.4590422,12.6565572 88.0385696,14.2798919 88.0385696,16.5455145 Z M107.978289,5.3792876 L125,5.3792876 L125,10.1583113 L114.893359,10.1583113 L114.893359,14.0422164 L123.525798,14.0422164 L123.525798,18.5329815 L114.893359,18.5329815 L114.893359,27.6207124 L107.978289,27.6207124 L107.978289,5.3792876 Z" id="NOROF" fill="#FFFFFF"></path>
                <rect id="Rectangle-5" fill="#FFFFFF" x="6" y="43" width="32" height="25" rx="2"></rect>
                <rect id="Rectangle-5-Copy-2" fill="#FFFFFF" x="46" y="55" width="79" height="13" rx="2"></rect>
                <rect id="Rectangle-5-Copy-3" fill="#FFFFFF" x="46" y="96" width="79" height="13" rx="2"></rect>
                <rect id="Rectangle-5-Copy" fill="#FFFFFF" x="6" y="84" width="32" height="25" rx="2"></rect>
            </g>
        </g>
    </g>
</svg>